<?xml version="1.0" encoding="UTF-8" standalone="no"?>
<svg
   viewBox="0 0 127.14 127.14"
   version="1.1"
   id="svg1"
   width="127.14"
   height="127.14"
   xmlns="http://www.w3.org/2000/svg"
   xmlns:svg="http://www.w3.org/2000/svg">
  <defs
     id="defs1" />
  <path
     d="M 94.627491,35.341736 A 74.001544,74.001544 0 0 0 76.167572,29.662302 50.713755,50.713755 0 0 0 73.8029,34.46906 a 68.744373,68.744373 0 0 0 -20.48678,0 50.931924,50.931924 0 0 0 -2.364671,-4.806758 74.522335,74.522335 0 0 0 -18.473995,5.69351 C 20.794851,52.640433 17.627881,69.495754 19.211366,86.111792 v 0 a 74.409732,74.409732 0 0 0 22.640321,11.365906 54.683024,54.683024 0 0 0 4.848983,-7.818899 48.152027,48.152027 0 0 1 -7.635917,-3.645535 c 0.640431,-0.464489 1.266788,-0.943053 1.872031,-1.407542 a 53.183992,53.183992 0 0 0 45.266565,0 c 0.612281,0.499678 1.238638,0.978242 1.872032,1.407542 a 48.335008,48.335008 0 0 1 -7.649994,3.652573 54.190384,54.190384 0 0 0 4.848984,7.811861 74.071922,74.071922 0 0 0 22.654399,-11.358868 v 0 C 109.78672,66.849574 104.75476,50.149083 94.627491,35.341736 Z M 48.706418,75.893034 c -4.412645,0 -8.05818,-4.004458 -8.05818,-8.930857 0,-4.926398 3.518856,-8.966045 8.044105,-8.966045 4.525249,0 8.142633,4.039647 8.065218,8.966045 -0.07742,4.926399 -3.554045,8.930857 -8.051143,8.930857 z m 29.727297,0 c -4.419683,0 -8.051143,-4.004458 -8.051143,-8.930857 0,-4.926398 3.518856,-8.966045 8.051143,-8.966045 4.532287,0 8.12152,4.039647 8.044105,8.966045 -0.07741,4.926399 -3.547007,8.930857 -8.044105,8.930857 z"
     id="path1"
     style="stroke-width:0.703771" />
</svg>
