<?xml version="1.0" encoding="UTF-8" standalone="no"?>
<!-- Uploaded to: SVG Repo, www.svgrepo.com, Generator: SVG Repo Mixer Tools -->

<svg
   fill="#000000"
   height="800"
   width="800"
   version="1.1"
   id="Layer_1"
   viewBox="0 0 455.73 455.73"
   xml:space="preserve"
   xmlns="http://www.w3.org/2000/svg"
   xmlns:svg="http://www.w3.org/2000/svg"><defs
   id="defs1" />&#10;<path
   id="rect1"
   style="display:inline;fill:#000000;fill-opacity:1;stroke:none;stroke-width:3.08615"
   d="m 166.55468,104.12754 c -34.42547,0 -62.42714,28.00167 -62.42714,62.42714 v 122.62064 c 0,34.42547 28.00167,62.42714 62.42714,62.42714 h 122.62064 c 34.42547,0 62.42714,-28.00167 62.42714,-62.42714 V 166.55468 c 0,-34.42547 -28.00167,-62.42714 -62.42714,-62.42714 z m 0,26.92926 h 122.62064 c 14.67894,0 27.30662,8.95799 32.70312,21.69396 0.44971,1.06132 0.84915,2.1493 1.19542,3.2601 0.69256,2.2216 1.17307,4.53606 1.41591,6.91958 0.12142,1.19176 0.18343,2.401 0.18343,3.62424 v 122.62064 c 0,19.57192 -15.92596,35.49788 -35.49788,35.49788 H 166.55468 c -1.22324,0 -2.43248,-0.062 -3.62424,-0.18343 -2.38352,-0.24284 -4.69798,-0.72335 -6.91958,-1.41591 -1.1108,-0.34627 -2.19878,-0.74571 -3.2601,-1.19542 -1.06134,-0.44971 -2.09612,-0.94918 -3.10198,-1.49633 -1.00587,-0.54714 -1.98229,-1.14145 -2.92669,-1.78004 -0.94439,-0.63859 -1.85637,-1.32167 -2.73331,-2.0457 -0.87694,-0.72403 -1.7193,-1.48889 -2.52278,-2.29237 -0.80348,-0.80348 -1.56834,-1.64584 -2.29237,-2.52278 -0.72403,-0.87694 -1.40711,-1.78892 -2.0457,-2.73331 -0.63859,-0.9444 -1.2329,-1.92082 -1.78004,-2.92669 -0.54715,-1.00586 -1.04662,-2.04064 -1.49633,-3.10198 -0.44971,-1.06132 -0.84915,-2.1493 -1.19542,-3.2601 -0.34628,-1.1108 -0.63963,-2.24497 -0.87648,-3.39925 -0.47369,-2.30856 -0.72286,-4.69808 -0.72286,-7.14457 V 166.55468 c 0,-1.22324 0.062,-2.43248 0.18343,-3.62424 0.36426,-3.57528 1.26222,-6.99569 2.61133,-10.17968 0.44971,-1.06134 0.94918,-2.09612 1.49633,-3.10198 0.54714,-1.00587 1.14145,-1.98229 1.78004,-2.92669 0.63859,-0.94439 1.32167,-1.85637 2.0457,-2.73331 0.72403,-0.87694 1.48889,-1.7193 2.29237,-2.52278 0.80348,-0.80348 1.64584,-1.56834 2.52278,-2.29237 0.87694,-0.72403 1.78892,-1.40711 2.73331,-2.0457 1.8888,-1.27717 3.906,-2.37695 6.02867,-3.27637 1.06132,-0.44971 2.1493,-0.84915 3.2601,-1.19542 1.1108,-0.34628 2.24497,-0.63963 3.39924,-0.87648 1.15429,-0.23684 2.32858,-0.41801 3.52034,-0.53943 1.19176,-0.12142 2.401,-0.18343 3.62424,-0.18343 z m 127.09515,16.08817 c -1.03951,0 -2.05427,0.106 -3.03512,0.30721 -0.98084,0.20122 -1.92726,0.49802 -2.82909,0.88009 -0.90183,0.38207 -1.7592,0.84895 -2.56164,1.3915 -4.01219,2.71281 -6.65483,7.30436 -6.65483,12.50188 0,1.0395 0.106,2.05516 0.30722,3.03601 0.20121,0.98085 0.498,1.92727 0.88008,2.8291 0.76415,1.80365 1.86943,3.42901 3.2348,4.79437 0.68268,0.68268 1.43029,1.29983 2.23273,1.84239 0.80244,0.54257 1.65981,1.01033 2.56164,1.39241 0.90183,0.38207 1.84825,0.67886 2.82909,0.88009 0.98085,0.20121 1.99561,0.30721 3.03512,0.30721 1.0395,0 2.05516,-0.106 3.03601,-0.30721 6.86594,-1.40855 12.04556,-7.49784 12.04556,-14.77437 0,-8.31604 -6.76554,-15.08068 -15.08157,-15.08068 z m -65.78844,16.9809 c -2.19626,0 -4.36782,0.11179 -6.50755,0.3298 -2.13974,0.21801 -4.24806,0.54248 -6.32052,0.96773 -2.07245,0.42526 -4.10835,0.95139 -6.10275,1.57313 -1.9944,0.62173 -3.94778,1.33944 -5.85336,2.1469 -5.71674,2.42234 -11.00949,5.65623 -15.73306,9.55621 -1.57453,1.29999 -3.08518,2.67405 -4.52782,4.11669 -2.88528,2.88528 -5.49657,6.04475 -7.78972,9.43604 -1.14659,1.69564 -2.21356,3.44921 -3.19596,5.2552 -0.98239,1.80599 -1.87978,3.66406 -2.68722,5.56964 -0.80746,1.90558 -1.52517,3.85896 -2.1469,5.85336 -0.62174,1.9944 -1.14787,4.0303 -1.57313,6.10275 -0.42525,2.07246 -0.74972,4.18078 -0.96773,6.32052 -0.21801,2.13973 -0.3298,4.31129 -0.3298,6.50755 0,2.19676 0.11179,4.36736 0.3298,6.50754 0.21801,2.14019 0.54248,4.24949 0.96773,6.32233 0.42526,2.07284 0.95139,4.10892 1.57313,6.10365 0.62173,1.99474 1.33944,3.94841 2.1469,5.85427 0.80744,1.90587 1.70483,3.76431 2.68722,5.57054 0.9824,1.80623 2.04937,3.56026 3.19596,5.2561 1.14657,1.69584 2.37304,3.33353 3.67303,4.90822 2.59998,3.14938 5.49545,6.04614 8.64451,8.64632 1.57452,1.30009 3.21258,2.52548 4.90822,3.67213 1.69564,1.14665 3.44921,2.21441 5.2552,3.19686 3.61198,1.96489 7.4342,3.59061 11.423,4.83412 3.9888,1.24351 8.14379,2.10483 12.42327,2.54086 2.13973,0.21801 4.31129,0.3298 6.50755,0.3298 21.96765,0 41.37461,-11.1699 52.8411,-28.12831 1.14665,-1.69584 2.21441,-3.44987 3.19686,-5.2561 0.98244,-1.80623 1.87975,-3.66467 2.68722,-5.57054 0.80749,-1.90586 1.52515,-3.85953 2.1469,-5.85427 0.62175,-1.99473 1.14787,-4.03081 1.57313,-6.10365 0.85053,-4.14568 1.29753,-8.43635 1.29753,-12.82987 0,-4.39252 -0.447,-8.68316 -1.29753,-12.82807 -0.42526,-2.07245 -0.95138,-4.10835 -1.57313,-6.10275 -0.62175,-1.9944 -1.33941,-3.94778 -2.1469,-5.85336 -0.80747,-1.90558 -1.70478,-3.76365 -2.68722,-5.56964 -0.98245,-1.80599 -2.05021,-3.55956 -3.19686,-5.2552 -1.14665,-1.69564 -2.37204,-3.3337 -3.67213,-4.90822 -11.70082,-14.17073 -29.39808,-23.21828 -49.16897,-23.21828 z m 0,26.9383 c 20.29469,0 36.80444,16.51063 36.80444,36.79722 0,19.02628 -14.51118,34.73283 -33.04738,36.62192 -1.23574,0.12594 -2.48865,0.19066 -3.75706,0.19066 -1.26792,0 -2.52171,-0.0647 -3.75707,-0.19066 -1.23536,-0.12594 -2.45296,-0.31276 -3.64954,-0.55841 -1.19659,-0.24566 -2.37237,-0.54984 -3.52395,-0.909 -1.15158,-0.35915 -2.27903,-0.77328 -3.37938,-1.2397 -1.10034,-0.46643 -2.17292,-0.98487 -3.21582,-1.55235 -1.04289,-0.56747 -2.0559,-1.1846 -3.03511,-1.84691 -0.97922,-0.6623 -1.92521,-1.36977 -2.83452,-2.12069 -0.9093,-0.75092 -1.78176,-1.54491 -2.61494,-2.37821 -0.83318,-0.83331 -1.62649,-1.70638 -2.37731,-2.61585 -0.75082,-0.90947 -1.45936,-1.8551 -2.12159,-2.83452 -0.66224,-0.97941 -1.27859,-1.99288 -1.84601,-3.03601 -0.56743,-1.04314 -1.08595,-2.1161 -1.55235,-3.21673 -0.46639,-1.10064 -0.88057,-2.22837 -1.2397,-3.38028 -0.35914,-1.15191 -0.66335,-2.32788 -0.909,-3.52485 -0.24565,-1.19697 -0.43247,-2.41554 -0.55841,-3.65135 -0.12594,-1.2358 -0.19066,-2.48865 -0.19066,-3.75706 0,-1.26792 0.0647,-2.52177 0.19066,-3.75707 0.12594,-1.23531 0.31276,-2.45217 0.55841,-3.64864 0.4913,-2.39294 1.21592,-4.7021 2.1487,-6.90241 0.4664,-1.10017 0.98492,-2.17316 1.55235,-3.21583 1.13485,-2.08535 2.46596,-4.0497 3.9676,-5.86782 0.75082,-0.90906 1.54413,-1.78202 2.37731,-2.61495 0.83318,-0.83292 1.70564,-1.62584 2.61494,-2.3764 0.90931,-0.75057 1.8553,-1.45869 2.83452,-2.1207 0.97921,-0.66199 1.99222,-1.27789 3.03511,-1.84509 1.0429,-0.56722 2.11548,-1.08524 3.21582,-1.55145 1.10035,-0.4662 2.2278,-0.88072 3.37938,-1.2397 1.15158,-0.35898 2.32736,-0.66256 3.52395,-0.9081 1.19658,-0.24553 2.41418,-0.43253 3.64954,-0.55841 1.23536,-0.12587 2.48915,-0.19065 3.75707,-0.19065 z" />&#10;</svg>
